<?xml version="1.0" encoding="UTF-8"?>
<!DOCTYPE svg PUBLIC "-//W3C//DTD SVG 1.1//EN" "http://www.w3.org/Graphics/SVG/1.1/DTD/svg11.dtd">
<!-- Creator: CorelDRAW 2020 (64-Bit) -->
<svg xmlns="http://www.w3.org/2000/svg" xml:space="preserve" width="1.51667in" height="1.517in" version="1.1" style="shape-rendering:geometricPrecision; text-rendering:geometricPrecision; image-rendering:optimizeQuality; fill-rule:evenodd; clip-rule:evenodd"
viewBox="0 0 546.84 546.96"
 xmlns:xlink="http://www.w3.org/1999/xlink"
 xmlns:xodm="http://www.corel.com/coreldraw/odm/2003">
 <defs>
  <style type="text/css">
   <![CDATA[
    .fil1 {fill:#FEFEFE}
    .fil0 {fill:#020295}
   ]]>
  </style>
 </defs>
 <g id="Layer_x0020_1">
  <metadata id="CorelCorpID_0Corel-Layer"/>
  <g id="_2771710474128">
   <rect class="fil0" x="-0" width="546.84" height="546.96" rx="54.08" ry="44.75"/>
   <g>
    <path class="fil1" d="M139.93 69.28c2.11,3.98 6.06,7.23 10.83,8.71 7.69,2.37 14.29,1.57 22.15,1.49l13.53 -1.12c2.73,-0.37 6.48,-0.54 9.26,-0.52 3.39,0.03 5.96,-0.41 9.77,-0.41 2.62,0 3.67,0.41 6.51,0.41 -0.81,1.54 -2.05,2.8 -2.44,4.48 3.45,0 5.19,-0.42 8.56,-0.4 5.84,0.03 4.5,-0.42 9.69,2.92 0.99,0.64 1.65,1.11 2.68,1.8 5.47,3.63 9.8,7.81 14.18,12.69 3.71,4.13 6.35,9.11 8.72,14.07 1.59,3.32 2.53,6.21 3.47,9.96 3.84,15.2 0.78,31.95 -4.1,46.54 -4.74,14.19 -11,27.86 -17.28,41.33l-9.23 22.52c-5.94,14.9 -9.36,32.67 -9.36,49.66 0,17.38 8.07,39.33 18.42,49.56 8.85,8.75 16.38,13.53 30.84,13.53 27.9,0 53.24,-23.61 89.15,-23.61 13.89,0 26.58,5.35 34.02,15.23 15.75,20.89 4.17,55.06 -12.55,71.78 -24.79,24.79 -72.44,37.93 -105.66,29.74 -9.43,-2.32 -17.59,-5.9 -24.97,-11.67 -2.51,-1.97 -4.1,-3.62 -6.35,-5.86 -3.88,-3.87 -6.79,-8.54 -9.61,-13.19 -0.51,-0.84 -0.15,-0.36 -0.67,-0.96 0.54,6.54 6.87,16.47 11.7,21.28 2.88,2.87 5.46,5.02 8.83,7.46 33.05,23.91 94.93,21.73 131.04,4.38l16.94 -9.11c2.56,-1.53 4.97,-3.5 7.35,-5.27 17.42,-13.03 31.75,-34.83 31.75,-58.62 0,-15.88 -1.26,-24.98 -7.87,-39.35 -0.48,-1.03 -0.86,-1.74 -1.42,-2.65 -0.59,-0.97 -0.86,-1.59 -1.47,-2.6 -10.04,-16.78 -29.17,-29.07 -49.9,-29.07 -14.84,0 -23.09,1.78 -35.97,6.36 -9.22,3.28 -16.64,7.51 -24.45,12.19 -20.99,12.57 -55.84,40.37 -73.78,6.96 -8.82,-16.43 -9.86,-38.14 -4.05,-55.89 0.41,-1.24 0.67,-2.42 1.02,-3.46 4.81,-14.44 12.56,-27.6 20.89,-40.17 4.9,-7.39 10.33,-14.67 15.92,-21.53l6.39 -7.86c0.68,-0.87 1.38,-1.8 2.16,-2.73 11.53,-13.64 22.9,-27.34 33.89,-41.41l7.83 -10.9c2.59,-3.91 4.87,-7.31 7.33,-11.39 3.41,-5.65 10.66,-18.84 10.66,-27.2 0,-5.84 -0.54,-9.37 -4.16,-13.75 -7.49,-9.06 -18.01,-11.58 -30.86,-12.29 -13.35,-0.74 -27.19,-2.05 -40.69,-2.05 -5.22,0 -9.02,-0.4 -14.01,-0.41l-0.24 0c-19.47,0 -37.62,0.41 -56.99,0.41 -19.13,0 -38.26,0 -57.39,0z"/>
    <path class="fil1" d="M133.41 263.04l1.6 -10.15c0.03,0.08 0.08,0.21 0.11,0.3l1.15 3.74c0.46,1.78 1.22,3.67 1.22,5.7 -0.91,0 -3.59,-0.18 -4.07,0.41zm48.44 -14.25c0,-6.54 0.69,-12.9 1.5,-18.44 0.63,-4.34 2.16,-14.57 2.16,-18.19l1.49 2.99c0.55,1.19 0.83,2.07 1.35,3.13 4.03,8.17 3.3,4.23 0.47,11.86 -1.89,5.09 -3.3,10.53 -5.4,15.77 -0.19,0.48 -0.31,0.82 -0.61,1.43 -0.29,0.56 -0.19,0.38 -0.44,0.78 -0.49,0.76 -0.17,0.29 -0.52,0.7zm-41.52 -89.96l-0.22 0.88 0.22 -0.88zm-1.63 2.85c2.41,-0.2 0.79,-0.42 2.44,-1.63 1.31,1.56 -1.59,10.02 -2.12,12.13l-7.63 30.63c-0.38,1.52 -0.2,1.66 -1.24,2.42 0,-15.53 -3.16,-18.02 2.79,-35.88 0.59,-1.78 4.96,-13.16 6.57,-15 0,2.7 -0.81,4.23 -0.81,7.33zm0.81 -8.14c0,-1.04 0.64,-0.07 0.24,0 -0.01,0 -0.24,1.14 -0.24,0zm8.55 40.3l0.85 -30.08 3.22 -7.37c2.04,1.36 2.37,3.51 4.48,4.07 0.89,-1.68 4.59,-8.96 5.7,-9.77 -0.2,8.95 -6.43,24.16 -9.62,33.12l-3.27 7.72c-0.27,0.54 -0.3,0.66 -0.54,1.09l-0.82 1.21zm14.25 -43.96l0.12 0.12c-0.01,-0.01 -0.16,-0.08 -0.12,-0.12zm-21.98 8.96l0.58 -7.56c0.38,-2.65 0.22,-5.48 1.87,-6.68 0.07,2.9 1.77,3.48 3.66,4.48l-5.55 9.1c-0.55,0.71 -0.23,0.3 -0.55,0.67zm15.88 0.41l-7.33 -10.18c0.96,-1.31 6.86,-4.57 8.8,-5.86 5.78,-3.85 6.52,-6.25 7.89,-7.17 1.26,1.89 1.5,1.61 -0.17,5.94 -0.88,2.28 -1.67,4.12 -2.85,6.11 -1.14,1.92 -2.03,3.45 -3.25,5.3 -1.01,1.53 -2.68,4.1 -3.09,5.86zm-19.95 -51.7c0,5.88 1.91,10.77 2.04,16.28 0.1,4.52 0.33,12.05 4.48,14.25 0,2.26 0.37,2.71 0.41,4.48l-0.8 0.51c-0.97,1.14 -1.42,3.2 -2.06,4.36 -3.74,6.72 -19.75,10.06 -21.36,14.05 -1.09,2.71 -2.1,19.99 -2.58,24.28 -0.29,2.56 0.03,5.84 -0.05,8.5 -0.06,2.01 -0.37,2.04 -0.43,4.05 -0.04,1.45 0.01,3.03 0.01,4.49l-0.8 17.11c-0.32,5.85 -1.98,9.95 -2.42,15.49l-0.85 24.39c0,8.45 0.39,5.66 -1.32,13.74 -0.11,0.52 -0.39,1.55 -0.58,2.33l-0.18 1.64c0.06,0.85 0.4,0.93 0.92,1.36 1.73,1.45 3.51,0.72 3.93,3.4 0.47,3.01 0.61,5.29 1.07,8.3 1.69,10.97 4.09,20.38 6.5,30.95 2.32,10.17 4.01,20.51 6.9,30.55 2.75,9.56 1.43,7.71 2.26,16.46 0.52,5.42 1.52,11.34 2.36,16.36 2.52,15.11 1.69,26.46 -0.57,41.19 -0.32,2.1 -0.49,2.23 1.09,2.65 -1.3,1.94 -1.74,3.93 -3.77,5.18 -3.71,2.29 -8.18,4.14 -12.16,5.75 -2.23,0.9 -4.46,1.86 -6.45,2.91 0,7.47 -2.21,8.55 7.73,8.55 10.51,0 16.54,-4.88 23.2,-4.88 3.43,0 5.69,0.46 9.28,-0.08 3.21,-0.48 2.29,-3.29 2.52,-8.06 0.11,-2.25 0.41,-4.05 0.41,-6.92l1.63 0c0.04,-1.76 0.42,-2.23 0.42,-4.46l0.39 -19.96c0,-10.94 -0.17,-21.82 -2.34,-32.26 -0.95,-4.55 0.27,-13.37 -0.62,-20.14 -0.36,-2.75 -0.43,-5.82 -0.76,-9.01 -0.5,-4.77 -1.57,-13.15 -1.57,-17.97l0.26 0.56c1.65,4.22 2.67,8.36 3.9,12.79 4.5,16.17 8.29,23.19 11.54,40.97 1.08,5.92 1.58,21.54 1.79,28.74 0.06,2.01 0.38,2.03 0.43,4.04 0.29,10.06 1.61,24.41 1.61,33.39l2.83 0.87c0.02,2.96 -0.35,7.09 -0.75,9.76 -0.32,2.19 -0.63,2.13 -1.73,3.56 -2.38,3.09 -5.59,6.06 -6.59,10.14 -2.34,9.52 16.16,6.37 21.72,-1.11 1.38,-1.86 2.23,-4.5 3.55,-6.62 1.3,-2.1 4.16,-3.75 4.16,-6.42 0,-1.84 -0.76,-8.8 -1.22,-9.77l2.43 -0.47c0.01,-2.82 -0.4,-5.09 -0.39,-8.49 0,-3.12 -0.01,-6.24 0,-9.37 0.02,-3.44 -0.42,-5.35 -0.41,-8.95 0.03,-12.61 -0.71,-14.15 -2.03,-26.05 -0.62,-5.54 -1.42,-11.18 -2.04,-16.69 -1.21,-10.9 -3.43,-21.61 -4.77,-32.28 -1.26,-10.03 -2.97,-28.58 -2.97,-38.96 0,-9.42 2.44,-19.62 2.44,-24.83 0,-2.71 -0.41,-4.25 -0.41,-7.33 1.18,0.79 0.55,0.82 2.04,1.22l18.32 -30.53c3.1,-6.22 7.73,-14.42 7.73,-21.98 0,-5.43 -4.16,-25.06 -5.19,-30.22 -1.61,-8.03 -4.98,-28.72 -9.92,-34.85 -0.76,-0.94 -1.32,-1.54 -2.04,-2.44 -2.77,-3.43 -4,-3.45 -8.32,-5.11 -2.26,-0.87 -4.25,-1.64 -6.53,-2.43 -2.53,-0.88 -4.15,-1.43 -6.4,-2.55 -2.73,-1.35 -5.8,-3.44 -7.17,-6.26 -0.74,-1.51 -0.08,-1.83 -1.14,-3.33 -2.01,-2.82 -2.84,-1.66 -2.94,-6.02 0.65,-0.32 -0.75,-0.42 1.22,0 0,-9.06 5.29,-6.9 5.29,-15.88 0,-1.16 -0.91,-2.78 -1.12,-4.17 -0.27,-1.83 -0.33,-3.01 -0.53,-4.76 -0.17,-1.47 -0.66,-2.98 -1.2,-4.09 -1.13,-2.31 -1.22,-0.94 -1.22,-4.48 -6.82,-1.59 -1.7,-4.48 -8.55,-4.48 -0.33,-4 -5.21,0.93 -6.11,-2.44 -4.06,0.34 -8.92,3.19 -11.3,5.39 -3.27,3.01 -2.36,4.36 -3.49,8.3 -0.29,0.99 -0.67,2.76 -0.67,3.82z"/>
   </g>
  </g>
 </g>
</svg>
