<?xml version="1.0" encoding="UTF-8"?>
<!DOCTYPE svg PUBLIC "-//W3C//DTD SVG 1.1//EN" "http://www.w3.org/Graphics/SVG/1.1/DTD/svg11.dtd">
<!-- Creator: CorelDRAW 2020 (64-Bit) -->
<svg xmlns="http://www.w3.org/2000/svg" xml:space="preserve" width="5.67137in" height="1.08181in" version="1.1" style="shape-rendering:geometricPrecision; text-rendering:geometricPrecision; image-rendering:optimizeQuality; fill-rule:evenodd; clip-rule:evenodd"
viewBox="0 0 6649.15 1268.32"
 xmlns:xlink="http://www.w3.org/1999/xlink"
 xmlns:xodm="http://www.corel.com/coreldraw/odm/2003">
 <defs>
  <style type="text/css">
   <![CDATA[
    .fil0 {fill:#020295}
   ]]>
  </style>
 </defs>
 <g id="Layer_x0020_1">
  <metadata id="CorelCorpID_0Corel-Layer"/>
  <g id="_2771710474800">
   <path class="fil0" d="M89.95 49.29c6.29,11.88 18.07,21.57 32.31,25.95 22.94,7.07 42.6,4.67 66.06,4.44l40.34 -3.36c8.14,-1.09 19.32,-1.61 27.6,-1.53 10.12,0.09 17.77,-1.23 29.12,-1.23 7.81,0 10.93,1.21 19.42,1.21 -2.42,4.58 -6.12,8.36 -7.28,13.35 10.29,0 15.46,-1.25 25.51,-1.2 17.4,0.09 13.41,-1.25 28.88,8.71 2.96,1.9 4.92,3.32 8,5.35 16.31,10.81 29.22,23.3 42.28,37.83 11.05,12.3 18.94,27.17 26.01,41.96 4.74,9.91 7.54,18.51 10.36,29.69 11.44,45.34 2.31,95.28 -12.23,138.78 -14.15,42.3 -32.81,83.06 -51.54,123.25l-27.52 67.16c-17.72,44.44 -27.92,97.41 -27.92,148.08 0,51.82 24.05,117.28 54.91,147.79 26.4,26.1 48.83,40.35 91.96,40.35 83.21,0 158.75,-70.4 265.82,-70.4 41.42,0 79.27,15.97 101.46,45.41 46.95,62.29 12.43,164.18 -37.43,214.04 -73.91,73.91 -216.01,113.1 -315.06,88.68 -28.11,-6.93 -52.44,-17.58 -74.45,-34.79 -7.5,-5.86 -12.23,-10.79 -18.94,-17.48 -11.59,-11.54 -20.24,-25.47 -28.65,-39.32 -1.51,-2.49 -0.43,-1.07 -1.99,-2.86 1.62,19.49 20.48,49.11 34.88,63.44 8.6,8.56 16.29,14.97 26.32,22.23 98.57,71.3 283.08,64.78 390.74,13.05l50.52 -27.16c7.63,-4.55 14.84,-10.44 21.91,-15.73 51.95,-38.86 94.67,-103.85 94.67,-174.79 0,-47.36 -3.76,-74.48 -23.46,-117.34 -1.42,-3.09 -2.58,-5.2 -4.22,-7.92 -1.75,-2.89 -2.56,-4.73 -4.38,-7.76 -29.95,-50.02 -86.99,-86.68 -148.8,-86.68 -44.25,0 -68.86,5.31 -107.27,18.97 -27.48,9.77 -49.61,22.4 -72.9,36.34 -62.58,37.47 -166.51,120.37 -219.99,20.76 -26.3,-48.99 -29.41,-113.74 -12.08,-166.65 1.21,-3.7 2,-7.22 3.03,-10.32 14.35,-43.05 37.44,-82.31 62.3,-119.77 14.61,-22.02 30.81,-43.73 47.47,-64.2l19.05 -23.43c2.03,-2.61 4.1,-5.36 6.43,-8.13 34.37,-40.67 68.29,-81.52 101.07,-123.48l23.34 -32.5c7.74,-11.65 14.52,-21.81 21.86,-33.97 10.16,-16.83 31.78,-56.18 31.78,-81.09 0,-17.41 -1.62,-27.94 -12.41,-41 -22.34,-27.03 -53.7,-34.53 -92.02,-36.65 -39.81,-2.21 -81.08,-6.1 -121.34,-6.1 -15.57,0 -26.9,-1.18 -41.77,-1.21l-0.71 0c-58.05,0.01 -112.17,1.21 -169.93,1.21 -57.05,0 -114.1,0 -171.15,0z"/>
   <path class="fil0" d="M70.52 627.06l4.77 -30.26c0.09,0.24 0.23,0.62 0.32,0.89l3.42 11.15c1.38,5.3 3.63,10.94 3.63,17 -2.72,0 -10.7,-0.54 -12.14,1.21zm144.45 -42.48c0,-19.51 2.07,-38.47 4.48,-54.99 1.89,-12.94 6.44,-43.43 6.44,-54.25l4.45 8.9c1.64,3.56 2.47,6.17 4.02,9.32 12.01,24.38 9.85,12.61 1.4,35.36 -5.63,15.17 -9.83,31.4 -16.1,47.01 -0.57,1.43 -0.91,2.46 -1.82,4.25 -0.85,1.68 -0.56,1.14 -1.32,2.32 -1.46,2.26 -0.5,0.87 -1.56,2.08zm-123.81 -268.25l-0.67 2.61 0.67 -2.61zm-4.86 8.5c7.2,-0.6 2.35,-1.25 7.28,-4.86 3.89,4.66 -4.75,29.89 -6.31,36.17l-22.77 91.33c-1.13,4.52 -0.6,4.96 -3.69,7.23 0,-46.29 -9.41,-53.75 8.32,-106.98 1.77,-5.32 14.8,-39.23 19.59,-44.74 0,8.06 -2.43,12.62 -2.43,21.85zm2.43 -24.28c0,-3.11 1.92,-0.19 0.72,0 -0.01,0 -0.72,3.39 -0.72,0zm25.49 120.17l2.55 -89.7 9.59 -21.97c6.07,4.07 7.06,10.46 13.35,12.14 2.65,-5.02 13.68,-26.71 16.99,-29.13 -0.6,26.71 -19.17,72.03 -28.68,98.77l-9.74 23.03c-0.79,1.61 -0.9,1.98 -1.61,3.24l-2.45 3.62zm42.48 -131.09l0.36 0.36c-0.03,-0.02 -0.48,-0.24 -0.36,-0.36zm-65.54 26.7l1.72 -22.56c1.13,-7.9 0.66,-16.34 5.56,-19.93 0.19,8.65 5.29,10.37 10.93,13.35l-16.55 27.14c-1.64,2.12 -0.69,0.88 -1.65,1.99zm47.34 1.21l-21.85 -30.34c2.87,-3.91 20.46,-13.62 26.24,-17.47 17.24,-11.49 19.44,-18.63 23.53,-21.38 3.77,5.64 4.47,4.81 -0.5,17.71 -2.62,6.79 -4.99,12.28 -8.5,18.2 -3.4,5.73 -6.07,10.27 -9.69,15.79 -3,4.57 -7.99,12.22 -9.22,17.49zm-59.48 -154.15c0,17.52 5.7,32.1 6.07,48.55 0.3,13.47 0.97,35.93 13.35,42.49 0,6.73 1.1,8.07 1.22,13.35l-2.39 1.52c-2.89,3.39 -4.22,9.55 -6.14,13.01 -11.16,20.05 -58.89,30 -63.7,41.91 -3.26,8.06 -6.27,59.61 -7.71,72.4 -0.86,7.64 0.1,17.43 -0.14,25.35 -0.18,5.99 -1.11,6.07 -1.29,12.06 -0.13,4.32 0.03,9.03 0.04,13.39l-2.4 51.01c-0.96,17.45 -5.89,29.68 -7.21,46.19l-2.53 72.73c0,25.21 1.17,16.88 -3.94,40.97 -0.33,1.54 -1.17,4.61 -1.73,6.95l-0.53 4.89c0.18,2.54 1.19,2.77 2.74,4.06 5.16,4.31 10.46,2.15 11.71,10.14 1.41,8.97 1.8,15.78 3.18,24.74 5.03,32.7 12.19,60.77 19.38,92.29 6.92,30.33 11.96,61.15 20.58,91.09 8.21,28.5 4.25,22.97 6.75,49.08 1.55,16.16 4.54,33.82 7.04,48.8 7.53,45.07 5.05,78.89 -1.69,122.83 -0.96,6.26 -1.46,6.65 3.26,7.91 -3.88,5.8 -5.19,11.72 -11.25,15.45 -11.08,6.83 -24.38,12.36 -36.28,17.13 -6.65,2.67 -13.3,5.54 -19.23,8.68 0,22.28 -6.58,25.49 23.06,25.49 31.34,0 49.33,-14.57 69.19,-14.57 10.23,0 16.97,1.36 27.69,-0.24 9.59,-1.42 6.83,-9.81 7.52,-24.04 0.32,-6.71 1.21,-12.07 1.21,-20.64l4.86 0c0.12,-5.25 1.25,-6.66 1.26,-13.31l1.17 -59.52c0,-32.61 -0.5,-65.08 -6.99,-96.19 -2.83,-13.57 0.79,-39.86 -1.85,-60.06 -1.07,-8.19 -1.28,-17.37 -2.28,-26.85 -1.5,-14.23 -4.67,-39.21 -4.67,-53.59l0.77 1.66c4.93,12.59 7.96,24.93 11.64,38.13 13.43,48.23 24.73,69.16 34.42,122.16 3.23,17.65 4.71,64.24 5.33,85.71 0.17,6 1.12,6.06 1.29,12.06 0.86,29.99 4.81,72.8 4.81,99.57l8.44 2.59c0.06,8.84 -1.05,21.14 -2.23,29.1 -0.96,6.52 -1.87,6.36 -5.15,10.63 -7.09,9.22 -16.67,18.08 -19.65,30.22 -6.97,28.38 48.18,18.99 64.78,-3.3 4.12,-5.53 6.65,-13.4 10.59,-19.75 3.89,-6.25 12.41,-11.18 12.41,-19.15 0,-5.48 -2.26,-26.25 -3.64,-29.13l7.24 -1.4c0.04,-8.41 -1.18,-15.19 -1.17,-25.3 0,-9.31 -0.04,-18.62 0,-27.93 0.06,-10.26 -1.25,-15.97 -1.22,-26.7 0.09,-37.6 -2.12,-42.19 -6.07,-77.68 -1.84,-16.51 -4.24,-33.33 -6.07,-49.77 -3.61,-32.51 -10.23,-64.45 -14.22,-96.24 -3.74,-29.91 -8.85,-85.23 -8.85,-116.17 0,-28.1 7.28,-58.5 7.28,-74.05 0,-8.07 -1.21,-12.67 -1.21,-21.85 3.52,2.36 1.62,2.46 6.07,3.64l54.62 -91.03c9.23,-18.56 23.06,-43.01 23.06,-65.55 0,-16.18 -12.39,-74.71 -15.47,-90.12 -4.8,-23.96 -14.85,-85.63 -29.59,-103.94 -2.27,-2.81 -3.93,-4.59 -6.09,-7.26 -8.25,-10.23 -11.94,-10.27 -24.81,-15.25 -6.73,-2.6 -12.67,-4.88 -19.46,-7.24 -7.53,-2.61 -12.37,-4.27 -19.1,-7.61 -8.14,-4.04 -17.3,-10.26 -21.39,-18.67 -2.2,-4.5 -0.23,-5.47 -3.41,-9.94 -5.98,-8.41 -8.47,-4.95 -8.77,-17.94 1.93,-0.96 -2.23,-1.25 3.64,0 0,-27.01 15.78,-20.57 15.78,-47.34 0,-3.47 -2.72,-8.28 -3.34,-12.44 -0.8,-5.47 -0.99,-8.97 -1.58,-14.2 -0.5,-4.38 -1.97,-8.89 -3.59,-12.2 -3.36,-6.89 -3.64,-2.79 -3.64,-13.35 -20.35,-4.74 -5.06,-13.35 -25.49,-13.35 -0.99,-11.91 -15.52,2.76 -18.2,-7.28 -12.09,1.01 -26.59,9.51 -33.7,16.06 -9.75,8.98 -7.03,13 -10.42,24.75 -0.86,2.96 -2,8.22 -2,11.38z"/>
  </g>
  <g id="_2771710473984">
   <path class="fil0" d="M2100.39 1014.18l-101.15 0c-38.32,0 -61.5,-21.5 -72.74,-50.28 -10.33,-26.42 -14.73,-74.92 -14.73,-111.01l0 -278.83c97.15,0 192.66,-7.76 269.89,49.95 41.68,31.14 79.29,71.85 90.24,131.18 12.24,66.27 1.43,137.95 -28.17,180.9 -26.99,39.15 -78.66,78.09 -143.33,78.09zm-73.81 -478.39l-114.81 0 0 -404.58c85.25,0 198.79,-8.7 260.44,51.19 49.14,47.75 74.91,113.17 60.65,193.35 -11.89,66.85 -55.09,117.13 -117.6,142.1 -24.96,9.97 -55.09,17.93 -88.68,17.93zm-349.9 -412.77c45.77,0 81.03,12.11 93.37,46.04 12.25,33.65 15.98,79.6 15.98,126.17l0 554.93c0,106.85 -8.67,172.22 -109.34,172.22l0 30.07 448.32 0c112.5,0 213.82,-36.49 270.12,-123.52 59.66,-92.22 29.44,-215.26 -49.39,-294.05 -31.23,-31.21 -34.98,-32.41 -71.51,-54.24 -16.33,-9.75 -71.23,-30.67 -94.56,-31.19l0 -5.47c28.77,-2.4 102.15,-45.22 127.83,-68.99 16.23,-15.02 32.01,-34.93 42.63,-55.78 51.24,-100.65 6.85,-226.93 -92.06,-276.19 -80.94,-40.31 -143.31,-50.08 -239.68,-50.08l-341.71 0 0 30.07z"/>
   <path class="fil0" d="M2507.7 65.61l0 213.22 32.8 0c0,-104.17 82.71,-136.68 180.42,-136.68l150.35 0 0 749.02c0,58.36 -10.88,107.85 -60.43,125.46 -48.09,17.1 -48.92,-14.96 -48.92,35.82l341.7 0 0 -30.07c-37.1,0 -72.55,-5.53 -87.56,-38.19 -10.57,-23 -16.32,-61.72 -16.32,-95.76l0 -746.28 155.82 0c67.68,0 142.14,19.26 170.45,75.57 8.09,16.07 20.42,39.45 20.9,61.11l19.13 0 0 -221.42c-44.38,0 -16.05,-2.83 -50.99,14.61 -28.37,14.17 -67.77,20.92 -102.09,20.92l-554.93 0c-32.4,0 -84.45,-7.92 -109.71,-26.97 -12.63,-9.52 -0.36,-8.57 -32.44,-8.57 -6.3,0 -8.2,1.9 -8.2,8.2z"/>
   <path class="fil0" d="M4940.63 461.98l0 30.07c79.38,0 98.41,12.84 98.41,98.41l0 306.16c0,30.29 -2.79,69.22 -10.51,90.64 -5.29,14.69 -8.75,21.3 -22.54,26.66 -24.42,9.49 -39.58,8.45 -65.36,8.45l0 30.07 311.63 0 0 -30.07c-32.25,0 -71.06,-0.15 -86.2,-31.34 -9.27,-19.1 -12.2,-58.28 -12.2,-86.2l0 -278.83c0,-7.03 23.9,-32.76 29.25,-39.09 6.85,-8.1 8.66,-11.28 16.49,-19.05 49.14,-48.83 111.71,-76.29 180.84,-48.17 50.85,20.69 74.12,73.66 74.12,136.37l0 284.3c0,78.09 -39.33,82.01 -103.88,82.01l0 30.07 314.37 0 0 -30.07c-36.86,0 -70.15,-2.24 -87.42,-35.6 -11.36,-21.94 -10.99,-61.76 -10.99,-95.62 0,-63.64 6.92,-259.7 -10.57,-311.99 -44.96,-134.39 -195.27,-174.31 -314.19,-94.78 -33.88,22.66 -62.1,48.93 -88.01,78.74l0 -120.28c-58.91,0 -169.18,19.14 -213.23,19.14z"/>
   <path class="fil0" d="M1225.63 123.02c40.29,0 77.47,6.34 93.82,45.59 10.92,26.21 15.53,76.23 15.53,112.96l0 579.53c0,110.31 -11.82,161.28 -109.35,161.28l0 30.07 344.44 0 0 -30.07c-42.19,0 -77.48,-7.29 -91.97,-50.18 -11.05,-32.69 -14.65,-71.38 -14.65,-113.83l0 -565.86c0,-40.5 3.18,-89.52 14.73,-119.21 14.69,-37.74 46.83,-50.27 91.88,-50.27l0 -30.07 -344.44 0 0 30.07z"/>
   <path class="fil0" d="M3398.86 896.63c0,-32.11 6.8,-52.81 22.2,-73.48 20.87,-28.02 83.27,-55.94 118.94,-66.94 24.22,-7.47 48.86,-13.76 69.35,-23.59 0,33.37 7.93,189.53 -4.87,208.36 -26.8,39.41 -74.25,62.27 -123.62,62.27 -44.63,0 -82.01,-59.17 -82.01,-106.61zm-106.61 -270.63c10.08,2.35 19.35,5.7 30.07,8.2 6.87,-29.5 29.44,-63.64 51.21,-85.47 53.52,-53.67 165.96,-57.55 211.81,11.06 27.45,41.08 24.01,69.45 24.01,134.55 -10.27,2.39 -24.56,10.62 -36.68,15.26 -63.4,24.24 -132.25,32.34 -202.98,70.38 -163.41,87.87 -77.16,288.87 83.85,288.87 71.77,0 90.79,-24.18 126.56,-53.86 21.75,-18.05 18.68,-21.97 31.99,-30.88 2.8,33.71 41.05,84.75 101.14,84.75 69.61,0 114.81,-61.12 114.81,-123.02 -42.55,0 -27.73,-2.16 -40.56,33.25 -8.69,23.99 -15.83,24.15 -33.25,24.15 -21.62,0 -26.38,-25.7 -27.37,-46.44 -4.23,-88.88 9.37,-302.12 -9.27,-367.97 -6.03,-21.29 -12.57,-34.21 -22.61,-51.19 -8.89,-15.04 -22.01,-30.77 -34.34,-42.2 -76.17,-70.64 -228.32,-76.96 -319.85,26.02 -16.1,18.12 -48.54,72.88 -48.54,104.55z"/>
   <path class="fil0" d="M3871.78 21.87l0 30.07c85.36,0 117.55,-6.04 117.55,92.94l0 751.75c0,27.05 -2.24,63.25 -8.71,84.23 -15.13,49.07 -57.84,41.52 -100.63,41.52l0 30.07 330.77 0 0 -30.07c-74.73,0 -106.61,-6.33 -106.61,-87.48l0 -934.9c-63.13,0 -182.18,21.87 -232.36,21.87z"/>
   <path class="fil0" d="M4582.53 481.12c93.55,0 161.28,70.05 161.28,150.35l0 30.07 -319.83 0c0,-20.51 8.14,-55.95 13.28,-71.46 6.94,-20.92 18.37,-38.28 30.81,-53.94 24.63,-31.01 59.62,-55.02 114.46,-55.02zm38.27 587.73c96.93,0 169.08,-32.51 229.22,-107.01 19.52,-24.19 16.8,-4.73 16.8,-62.47 -36.55,24.47 -92.47,120.28 -194.08,120.28 -54.03,0 -80.2,-4.05 -126.31,-34.98 -97.19,-65.19 -122.46,-178.93 -122.46,-293.05l434.64 0c0,-74.47 -21.31,-124.1 -66.28,-168.81 -36.63,-36.41 -82.12,-62.07 -141.66,-74.29 -65.88,-13.52 -132.46,1.74 -179.36,25.29 -99.75,50.09 -170.25,165.35 -168.46,288.48 0.11,7.23 0.78,16.63 0.77,25.06 -0.05,54.15 25.23,116.46 57.07,158.9l24.33 30.34c4.96,5.7 8.85,8.78 14.33,13 6.03,4.63 8.4,7.49 14.8,12.54 55.02,43.36 121.71,66.73 206.63,66.73z"/>
   <path class="fil0" d="M5716.98 472.91l0 30.07 112.08 0 0 407.31c0,39.45 14.04,76.11 38.82,103.33l10.78 11.08c31.14,28.58 72.02,42.89 113.61,44.14l12.08 0c35.42,-1.08 70.71,-11.51 100.31,-30.57 19.56,-12.6 40.46,-30.64 55.84,-48.04 4.42,-5.01 12.51,-14.98 15.74,-19.8 -3.8,-7.19 -10.24,-17.36 -16.4,-21.87 -33.21,22.23 -40.56,54.67 -123.01,54.67 -31.53,0 -60.7,-18.61 -73.02,-39.05 -14.62,-24.24 -22.65,-51.71 -22.65,-89.42l0 -371.78 205.02 0 0 -46.47 -205.02 0 0 -199.55c-42.1,0 -22.09,-8.02 -64.73,63.75 -10.56,17.78 -29.96,45.28 -43.93,59.95 -16.05,16.84 -17.88,23.27 -37.8,38.74 -16.04,12.46 -53.04,46.93 -77.7,53.52z"/>
   <path class="fil0" d="M6250.04 612.33c0,197.42 314.37,168.67 314.37,317.1 0,61.56 -45.45,103.88 -92.94,103.88 -61.23,0 -102.59,-14.85 -142.28,-54.54 -26.31,-26.31 -56.49,-82.5 -57.27,-117.68 -21.5,0 -30.08,-2.96 -30.08,8.2l0 196.82 30.08 0c1.64,-19.76 14.74,-41.01 35.53,-41.01 29.31,0 81.74,41.83 151.28,43.74l10.09 0c20.85,-0.61 43.14,-4.99 66.73,-15.19 53.16,-22.98 113.6,-90.61 113.6,-165.23 0,-95.77 -60.37,-145.07 -134.83,-182.28 -18,-8.99 -34.78,-18.5 -53,-26.27 -20.74,-8.85 -35.14,-16.19 -52.87,-26.41 -17.27,-9.96 -33.35,-17.94 -47.11,-32.16 -38.29,-39.59 -43.09,-142.94 77.33,-142.94 83.22,0 142.15,83.38 142.15,150.35l35.54 0 0 -177.68c0,-12.36 -16.99,-8.2 -30.07,-8.2 -10.39,44.59 -63.32,24.5 -90.16,13.62 -110.26,-44.68 -246.08,33.18 -246.08,155.86z"/>
  </g>
 </g>
</svg>
