<?xml version="1.0" encoding="UTF-8"?>
<!DOCTYPE svg PUBLIC "-//W3C//DTD SVG 1.1//EN" "http://www.w3.org/Graphics/SVG/1.1/DTD/svg11.dtd">
<!-- Creator: CorelDRAW 2020 (64-Bit) -->
<svg xmlns="http://www.w3.org/2000/svg" xml:space="preserve" width="6.30695in" height="1.37361in" version="1.1" style="shape-rendering:geometricPrecision; text-rendering:geometricPrecision; image-rendering:optimizeQuality; fill-rule:evenodd; clip-rule:evenodd"
viewBox="0 0 7080.75 1542.14"
 xmlns:xlink="http://www.w3.org/1999/xlink"
 xmlns:xodm="http://www.corel.com/coreldraw/odm/2003">
 <defs>
  <style type="text/css">
   <![CDATA[
    .str0 {stroke:#373435;stroke-width:7.8;stroke-miterlimit:2.61313}
    .fil1 {fill:#0A0AF7}
    .fil0 {fill:#E8E8FF}
   ]]>
  </style>
 </defs>
 <g id="Layer_x0020_1">
  <metadata id="CorelCorpID_0Corel-Layer"/>
  <path class="fil0 str0" d="M78.75 3.9l6923.26 0c41.17,0 74.85,33.68 74.85,74.85l0 1384.64c0,41.17 -33.68,74.85 -74.85,74.85l-6923.26 0c-41.17,0 -74.85,-33.68 -74.85,-74.85l0 -1384.64c0,-41.17 33.68,-74.85 74.85,-74.85z"/>
  <g id="_2771709897056">
   <g>
    <path class="fil1" d="M688.63 255.43c5.54,10.47 15.93,19.02 28.48,22.88 20.23,6.23 37.56,4.12 58.24,3.91l35.57 -2.96c7.17,-0.96 17.03,-1.42 24.33,-1.35 8.92,0.08 15.66,-1.08 25.67,-1.08 6.89,0 9.64,1.07 17.12,1.07 -2.14,4.04 -5.4,7.37 -6.42,11.77 9.08,0 13.64,-1.1 22.5,-1.06 15.34,0.08 11.82,-1.11 25.46,7.68 2.61,1.68 4.34,2.92 7.05,4.72 14.39,9.53 25.76,20.54 37.28,33.35 9.75,10.85 16.7,23.96 22.93,37 4.18,8.74 6.65,16.32 9.14,26.18 10.08,39.97 2.04,84.01 -10.78,122.35 -12.47,37.29 -28.92,73.23 -45.43,108.67l-24.26 59.21c-15.62,39.18 -24.62,85.88 -24.62,130.55 0,45.69 21.21,103.4 48.42,130.3 23.28,23.02 43.05,35.57 81.07,35.57 73.36,0 139.96,-62.07 234.36,-62.07 36.51,0 69.88,14.07 89.45,40.04 41.39,54.92 10.96,144.74 -33,188.7 -65.16,65.16 -190.44,99.71 -277.76,78.19 -24.78,-6.11 -46.23,-15.5 -65.64,-30.68 -6.61,-5.17 -10.78,-9.52 -16.69,-15.41 -10.21,-10.18 -17.84,-22.46 -25.26,-34.67 -1.33,-2.2 -0.38,-0.94 -1.76,-2.52 1.43,17.19 18.05,43.29 30.75,55.93 7.58,7.55 14.36,13.2 23.21,19.6 86.9,62.87 249.57,57.12 344.49,11.51l44.54 -23.95c6.72,-4.01 13.08,-9.2 19.32,-13.86 45.8,-34.26 83.47,-91.55 83.47,-154.1 0,-41.75 -3.32,-65.66 -20.68,-103.45 -1.25,-2.73 -2.27,-4.59 -3.72,-6.98 -1.55,-2.55 -2.26,-4.17 -3.86,-6.85 -26.4,-44.1 -76.7,-76.42 -131.19,-76.42 -39.02,0 -60.71,4.68 -94.57,16.72 -24.23,8.62 -43.74,19.75 -64.27,32.04 -55.18,33.04 -146.8,106.12 -193.95,18.31 -23.19,-43.19 -25.93,-100.28 -10.65,-146.93 1.07,-3.26 1.76,-6.36 2.67,-9.1 12.65,-37.96 33,-72.57 54.92,-105.59 12.88,-19.42 27.16,-38.56 41.85,-56.6l16.8 -20.66c1.79,-2.3 3.62,-4.73 5.68,-7.16 30.31,-35.86 60.21,-71.87 89.11,-108.87l20.58 -28.66c6.82,-10.28 12.8,-19.23 19.27,-29.95 8.96,-14.84 28.02,-49.54 28.02,-71.5 0,-15.35 -1.43,-24.63 -10.94,-36.14 -19.7,-23.83 -47.34,-30.44 -81.12,-32.31 -35.1,-1.94 -71.48,-5.38 -106.98,-5.38 -13.73,0 -23.71,-1.04 -36.83,-1.07l-0.63 0c-51.18,0.01 -98.89,1.07 -149.82,1.07 -50.3,0 -100.59,0 -150.89,0z"/>
    <path class="fil1" d="M671.51 764.81l4.2 -26.67c0.08,0.22 0.2,0.54 0.28,0.79l3.01 9.83c1.22,4.67 3.2,9.64 3.2,14.99 -2.4,0 -9.44,-0.47 -10.7,1.07zm127.35 -37.46c0,-17.2 1.83,-33.91 3.95,-48.48 1.67,-11.4 5.68,-38.29 5.68,-47.83l3.92 7.85c1.45,3.14 2.18,5.44 3.55,8.22 10.59,21.49 8.68,11.12 1.24,31.17 -4.96,13.38 -8.66,27.68 -14.2,41.45 -0.5,1.26 -0.8,2.17 -1.6,3.75 -0.75,1.48 -0.5,1 -1.17,2.04 -1.29,1.99 -0.44,0.76 -1.37,1.83zm-109.15 -236.5l-0.59 2.3 0.59 -2.3zm-4.28 7.49c6.35,-0.53 2.07,-1.1 6.42,-4.28 3.43,4.11 -4.18,26.35 -5.56,31.89l-20.07 80.52c-0.99,3.99 -0.53,4.37 -3.26,6.37 0,-40.81 -8.3,-47.39 7.34,-94.32 1.56,-4.69 13.05,-34.59 17.27,-39.44 0,7.1 -2.14,11.13 -2.14,19.26zm2.14 -21.4c0,-2.74 1.69,-0.17 0.64,0 -0.01,0 -0.64,2.99 -0.64,0zm22.47 105.94l2.25 -79.08 8.45 -19.37c5.36,3.58 6.22,9.22 11.77,10.7 2.34,-4.43 12.07,-23.55 14.98,-25.68 -0.53,23.55 -16.9,63.51 -25.28,87.08l-8.59 20.31c-0.7,1.41 -0.8,1.75 -1.42,2.86l-2.16 3.19zm37.46 -115.58l0.32 0.32c-0.02,-0.02 -0.42,-0.21 -0.32,-0.32zm-57.79 23.54l1.52 -19.89c0.99,-6.96 0.58,-14.4 4.91,-17.57 0.17,7.63 4.65,9.14 9.63,11.77l-14.59 23.93c-1.45,1.87 -0.61,0.77 -1.46,1.75zm41.73 1.07l-19.26 -26.75c2.53,-3.45 18.04,-12 23.13,-15.4 15.2,-10.13 17.14,-16.43 20.75,-18.85 3.32,4.97 3.94,4.24 -0.45,15.61 -2.31,5.98 -4.39,10.83 -7.49,16.05 -3,5.05 -5.35,9.06 -8.55,13.93 -2.65,4.02 -7.05,10.77 -8.13,15.41zm-52.43 -135.9c0,15.45 5.03,28.3 5.35,42.8 0.27,11.87 0.85,31.68 11.77,37.46 0,5.93 0.96,7.12 1.07,11.77l-2.11 1.34c-2.55,2.99 -3.72,8.42 -5.41,11.47 -9.83,17.68 -51.92,26.45 -56.16,36.95 -2.87,7.11 -5.53,52.55 -6.79,63.83 -0.76,6.74 0.09,15.36 -0.12,22.35 -0.16,5.28 -0.98,5.35 -1.14,10.63 -0.11,3.81 0.02,7.96 0.04,11.81l-2.11 44.97c-0.84,15.38 -5.2,26.16 -6.36,40.72l-2.23 64.12c0,22.22 1.03,14.88 -3.48,36.12 -0.29,1.36 -1.03,4.06 -1.52,6.13l-0.46 4.31c0.16,2.25 1.05,2.44 2.41,3.58 4.54,3.8 9.22,1.9 10.33,8.93 1.24,7.91 1.59,13.91 2.81,21.81 4.44,28.83 10.75,53.58 17.09,81.36 6.1,26.75 10.55,53.92 18.14,80.3 7.24,25.13 3.74,20.26 5.95,43.28 1.37,14.24 4,29.81 6.21,43.02 6.63,39.74 4.45,69.55 -1.49,108.29 -0.85,5.52 -1.29,5.86 2.87,6.97 -3.42,5.11 -4.57,10.33 -9.92,13.62 -9.76,6.02 -21.49,10.89 -31.98,15.11 -5.86,2.36 -11.72,4.88 -16.96,7.66 0,19.64 -5.8,22.47 20.33,22.47 27.63,0 43.49,-12.84 61,-12.84 9.01,0 14.96,1.2 24.41,-0.21 8.45,-1.26 6.02,-8.65 6.63,-21.19 0.29,-5.91 1.07,-10.64 1.07,-18.2l4.28 0c0.11,-4.63 1.1,-5.87 1.11,-11.73l1.03 -52.47c0,-28.75 -0.44,-57.37 -6.16,-84.8 -2.5,-11.97 0.7,-35.14 -1.63,-52.95 -0.94,-7.21 -1.13,-15.31 -2.01,-23.67 -1.32,-12.54 -4.12,-34.57 -4.12,-47.25l0.68 1.46c4.34,11.1 7.01,21.98 10.25,33.62 11.84,42.52 21.8,60.97 30.35,107.7 2.85,15.55 4.16,56.63 4.7,75.56 0.15,5.29 0.99,5.34 1.14,10.63 0.76,26.45 4.24,64.18 4.24,87.79l7.44 2.29c0.05,7.79 -0.93,18.63 -1.97,25.66 -0.85,5.75 -1.65,5.6 -4.54,9.37 -6.25,8.13 -14.7,15.94 -17.33,26.65 -6.15,25.02 42.48,16.74 57.11,-2.91 3.63,-4.88 5.86,-11.82 9.34,-17.41 3.43,-5.51 10.94,-9.86 10.94,-16.88 0,-4.83 -1.99,-23.14 -3.21,-25.68l6.39 -1.23c0.04,-7.42 -1.04,-13.39 -1.03,-22.31 0,-8.21 -0.04,-16.42 0,-24.62 0.05,-9.04 -1.1,-14.07 -1.08,-23.54 0.08,-33.15 -1.87,-37.19 -5.35,-68.49 -1.62,-14.56 -3.74,-29.38 -5.35,-43.87 -3.19,-28.66 -9.03,-56.82 -12.54,-84.85 -3.3,-26.37 -7.8,-75.15 -7.8,-102.42 0,-24.77 6.42,-51.58 6.42,-65.28 0,-7.12 -1.07,-11.17 -1.07,-19.26 3.11,2.08 1.44,2.17 5.35,3.21l48.16 -80.25c8.14,-16.37 20.33,-37.92 20.33,-57.79 0,-14.27 -10.93,-65.87 -13.64,-79.46 -4.23,-21.12 -13.09,-75.49 -26.08,-91.63 -2,-2.48 -3.47,-4.05 -5.37,-6.4 -7.28,-9.02 -10.53,-9.06 -21.87,-13.44 -5.93,-2.29 -11.17,-4.31 -17.16,-6.38 -6.64,-2.3 -10.9,-3.77 -16.83,-6.71 -7.18,-3.56 -15.25,-9.04 -18.86,-16.46 -1.94,-3.97 -0.2,-4.82 -3.01,-8.76 -5.28,-7.42 -7.47,-4.37 -7.73,-15.81 1.71,-0.85 -1.97,-1.1 3.21,0 0,-23.82 13.91,-18.14 13.91,-41.73 0,-3.06 -2.4,-7.31 -2.94,-10.97 -0.71,-4.82 -0.87,-7.91 -1.39,-12.52 -0.44,-3.86 -1.74,-7.84 -3.16,-10.75 -2.97,-6.08 -3.21,-2.46 -3.21,-11.77 -17.94,-4.18 -4.46,-11.77 -22.47,-11.77 -0.88,-10.51 -13.69,2.43 -16.05,-6.42 -10.66,0.89 -23.44,8.39 -29.71,14.16 -8.6,7.92 -6.2,11.46 -9.19,21.82 -0.75,2.61 -1.76,7.25 -1.76,10.04z"/>
   </g>
   <g>
    <path class="fil1" d="M2461.1 1106.1l-89.17 0c-33.78,0 -54.22,-18.95 -64.13,-44.32 -9.11,-23.29 -12.99,-66.05 -12.99,-97.87l0 -245.83c85.65,0 169.85,-6.85 237.94,44.03 36.74,27.46 69.9,63.35 79.56,115.66 10.79,58.42 1.26,121.62 -24.84,159.48 -23.79,34.52 -69.35,68.84 -126.37,68.84zm-65.07 -421.76l-101.22 0 0 -356.69c75.16,0 175.25,-7.67 229.61,45.13 43.33,42.1 66.04,99.77 53.47,170.47 -10.48,58.94 -48.57,103.26 -103.68,125.27 -22.01,8.79 -48.57,15.81 -78.18,15.81zm-308.48 -363.92c40.35,0 71.43,10.68 82.31,40.59 10.79,29.67 14.09,70.18 14.09,111.24l0 489.24c0,94.2 -7.65,151.83 -96.4,151.83l0 26.51 395.24 0c99.18,0 188.51,-32.16 238.15,-108.9 52.6,-81.31 25.96,-189.78 -43.54,-259.24 -27.53,-27.52 -30.84,-28.58 -63.04,-47.82 -14.4,-8.6 -62.79,-27.04 -83.37,-27.5l0 -4.82c25.36,-2.11 90.06,-39.87 112.7,-60.82 14.31,-13.25 28.22,-30.8 37.58,-49.18 45.17,-88.74 6.05,-200.06 -81.16,-243.5 -71.36,-35.54 -126.34,-44.15 -211.31,-44.15l-301.26 0 0 26.51z"/>
    <path class="fil1" d="M2820.2 269.82l0 187.98 28.92 0c0,-91.84 72.91,-120.5 159.06,-120.5l132.55 0 0 660.35c0,51.45 -9.6,95.08 -53.27,110.61 -42.4,15.07 -43.13,-13.18 -43.13,31.58l301.25 0 0 -26.51c-32.71,0 -63.96,-4.88 -77.19,-33.67 -9.32,-20.27 -14.39,-54.41 -14.39,-84.42l0 -657.95 137.37 0c59.67,0 125.32,16.98 150.28,66.62 7.13,14.17 18,34.78 18.42,53.88l16.87 0 0 -195.22c-39.13,0 -14.15,-2.5 -44.96,12.88 -25.01,12.5 -59.75,18.45 -90,18.45l-489.24 0c-28.57,0 -74.46,-6.98 -96.73,-23.78 -11.13,-8.39 -0.31,-7.55 -28.6,-7.55 -5.55,0 -7.23,1.68 -7.23,7.23z"/>
    <path class="fil1" d="M4965.14 619.27l0 26.51c69.99,0 86.76,11.32 86.76,86.76l0 269.92c0,26.71 -2.45,61.02 -9.26,79.91 -4.66,12.96 -7.71,18.78 -19.88,23.51 -21.53,8.37 -34.9,7.45 -57.62,7.45l0 26.51 274.75 0 0 -26.51c-28.43,0 -62.65,-0.14 -76,-27.63 -8.18,-16.84 -10.76,-51.38 -10.76,-76l0 -245.83c0,-6.2 21.07,-28.88 25.79,-34.46 6.04,-7.14 7.64,-9.95 14.53,-16.8 43.33,-43.04 98.48,-67.26 159.44,-42.46 44.83,18.24 65.34,64.93 65.34,120.23l0 250.65c0,68.84 -34.68,72.3 -91.58,72.3l0 26.51 277.15 0 0 -26.51c-32.5,0 -61.85,-1.98 -77.07,-31.38 -10.02,-19.35 -9.69,-54.45 -9.69,-84.3 0,-56.11 6.1,-228.96 -9.32,-275.06 -39.64,-118.48 -172.16,-153.68 -277,-83.56 -29.86,19.97 -54.75,43.14 -77.59,69.42l0 -106.04c-51.94,0 -149.15,16.87 -187.98,16.87z"/>
    <path class="fil1" d="M1689.89 320.43c35.52,0 68.3,5.6 82.72,40.2 9.63,23.11 13.68,67.21 13.68,99.59l0 510.93c0,97.25 -10.41,142.19 -96.4,142.19l0 26.51 303.67 0 0 -26.51c-37.19,0 -68.31,-6.43 -81.08,-44.24 -9.74,-28.81 -12.91,-62.92 -12.91,-100.36l0 -498.88c0,-35.71 2.8,-78.92 12.99,-105.1 12.96,-33.27 41.28,-44.32 81.01,-44.32l0 -26.51 -303.67 0 0 26.51z"/>
    <path class="fil1" d="M3605.87 1002.47c0,-28.31 5.99,-46.56 19.57,-64.78 18.4,-24.7 73.41,-49.32 104.87,-59.02 21.35,-6.59 43.08,-12.13 61.14,-20.8 0,29.42 7,167.1 -4.29,183.69 -23.63,34.74 -65.47,54.9 -108.98,54.9 -39.34,0 -72.3,-52.16 -72.3,-93.99zm-93.99 -238.59c8.88,2.07 17.06,5.03 26.51,7.23 6.06,-26.01 25.95,-56.1 45.15,-75.35 47.18,-47.32 146.32,-50.74 186.74,9.76 24.2,36.21 21.16,61.23 21.16,118.62 -9.05,2.1 -21.65,9.37 -32.34,13.45 -55.89,21.38 -116.59,28.52 -178.95,62.05 -144.06,77.46 -68.03,254.67 73.92,254.67 63.28,0 80.04,-21.32 111.58,-47.48 19.18,-15.92 16.47,-19.37 28.2,-27.23 2.47,29.72 36.2,74.71 89.17,74.71 61.37,0 101.22,-53.88 101.22,-108.45 -37.51,0 -24.45,-1.9 -35.76,29.31 -7.66,21.15 -13.96,21.3 -29.31,21.3 -19.06,0 -23.26,-22.66 -24.13,-40.94 -3.73,-78.35 8.27,-266.36 -8.17,-324.41 -5.31,-18.77 -11.08,-30.16 -19.93,-45.13 -7.84,-13.26 -19.41,-27.13 -30.28,-37.21 -67.15,-62.28 -201.29,-67.85 -281.99,22.94 -14.2,15.97 -42.79,64.25 -42.79,92.17z"/>
    <path class="fil1" d="M4022.81 231.26l0 26.51c75.26,0 103.63,-5.33 103.63,81.94l0 662.76c0,23.85 -1.98,55.76 -7.68,74.26 -13.34,43.26 -50.99,36.6 -88.72,36.6l0 26.51 291.62 0 0 -26.51c-65.89,0 -93.99,-5.58 -93.99,-77.12l0 -824.24c-55.66,0 -160.61,19.28 -204.86,19.28z"/>
    <path class="fil1" d="M4649.42 636.14c82.48,0 142.19,61.76 142.19,132.56l0 26.51 -281.98 0c0,-18.08 7.18,-49.33 11.71,-63 6.12,-18.44 16.2,-33.76 27.16,-47.56 21.72,-27.34 52.56,-48.51 100.91,-48.51zm33.74 518.16c85.45,0 149.06,-28.66 202.09,-94.34 17.22,-21.33 14.81,-4.17 14.81,-55.08 -32.22,21.57 -81.52,106.04 -171.11,106.04 -47.64,0 -70.71,-3.58 -111.35,-30.84 -85.69,-57.48 -107.96,-157.75 -107.96,-258.37l383.2 0c0,-65.65 -18.79,-109.4 -58.44,-148.83 -32.29,-32.1 -72.4,-54.72 -124.89,-65.5 -58.08,-11.92 -116.79,1.53 -158.13,22.29 -87.94,44.16 -150.1,145.78 -148.52,254.34 0.09,6.37 0.69,14.66 0.68,22.09 -0.04,47.74 22.25,102.67 50.32,140.09l21.45 26.75c4.38,5.03 7.81,7.74 12.64,11.46 5.31,4.09 7.4,6.61 13.05,11.05 48.51,38.22 107.31,58.83 182.17,58.83z"/>
    <path class="fil1" d="M5649.6 628.91l0 26.51 98.81 0 0 359.09c0,34.78 12.38,67.1 34.23,91.1l9.51 9.77c27.45,25.2 63.49,37.81 100.16,38.92l10.65 0c31.22,-0.95 62.34,-10.15 88.43,-26.95 17.24,-11.11 35.67,-27.02 49.23,-42.35 3.9,-4.42 11.03,-13.2 13.87,-17.45 -3.35,-6.34 -9.03,-15.3 -14.46,-19.28 -29.28,19.61 -35.76,48.2 -108.45,48.2 -27.8,0 -53.51,-16.41 -64.38,-34.43 -12.88,-21.37 -19.97,-45.59 -19.97,-78.84l0 -327.76 180.75 0 0 -40.97 -180.75 0 0 -175.93c-37.12,0 -19.47,-7.07 -57.07,56.21 -9.31,15.67 -26.41,39.92 -38.73,52.85 -14.15,14.84 -15.76,20.51 -33.32,34.15 -14.14,10.98 -46.76,41.38 -68.5,47.18z"/>
    <path class="fil1" d="M6119.55 751.83c0,174.05 277.15,148.7 277.15,279.56 0,54.27 -40.07,91.58 -81.94,91.58 -53.98,0 -90.44,-13.09 -125.44,-48.09 -23.19,-23.19 -49.81,-72.73 -50.49,-103.75 -18.96,0 -26.52,-2.61 -26.52,7.23l0 173.52 26.52 0c1.45,-17.42 13,-36.15 31.32,-36.15 25.84,0 72.06,36.88 133.37,38.56l8.9 0c18.38,-0.54 38.03,-4.4 58.83,-13.39 46.87,-20.26 100.15,-79.88 100.15,-145.67 0,-84.44 -53.22,-127.9 -118.86,-160.7 -15.87,-7.93 -30.67,-16.31 -46.73,-23.16 -18.29,-7.81 -30.98,-14.27 -46.61,-23.28 -15.23,-8.78 -29.41,-15.81 -41.54,-28.35 -33.76,-34.9 -37.99,-126.01 68.17,-126.01 73.37,0 125.32,73.51 125.32,132.55l31.33 0 0 -156.65c0,-10.89 -14.98,-7.23 -26.51,-7.23 -9.16,39.31 -55.83,21.6 -79.49,12.01 -97.21,-39.39 -216.95,29.25 -216.95,137.41z"/>
   </g>
  </g>
 </g>
</svg>
